<mxfile host="app.diagrams.net" modified="2021-07-09T02:35:01.412Z" agent="5.0 (Macintosh; Intel Mac OS X 10_15_7) AppleWebKit/537.36 (KHTML, like Gecko) Chrome/91.0.4472.114 Safari/537.36" etag="XXP3Plj3mjO3_f0lK6qr" version="14.8.5" type="github">
  <diagram id="kFYnImU_61pwE3nKOwQQ" name="Page-1">
    <mxGraphModel dx="946" dy="614" grid="1" gridSize="10" guides="1" tooltips="1" connect="1" arrows="1" fold="1" page="1" pageScale="1" pageWidth="827" pageHeight="1169" math="0" shadow="0">
      <root>
        <mxCell id="0" />
        <mxCell id="1" parent="0" />
        <mxCell id="8MOW-syFpqiqDsgKMTjz-3" value="" style="edgeStyle=orthogonalEdgeStyle;rounded=0;orthogonalLoop=1;jettySize=auto;html=1;" parent="1" source="8MOW-syFpqiqDsgKMTjz-1" target="8MOW-syFpqiqDsgKMTjz-2" edge="1">
          <mxGeometry relative="1" as="geometry" />
        </mxCell>
        <mxCell id="8MOW-syFpqiqDsgKMTjz-12" value="堂哥" style="edgeLabel;html=1;align=center;verticalAlign=middle;resizable=0;points=[];" parent="8MOW-syFpqiqDsgKMTjz-3" vertex="1" connectable="0">
          <mxGeometry x="-0.2154" y="-4" relative="1" as="geometry">
            <mxPoint as="offset" />
          </mxGeometry>
        </mxCell>
        <mxCell id="8MOW-syFpqiqDsgKMTjz-1" value="郭力" style="ellipse;whiteSpace=wrap;html=1;fillColor=#f8cecc;strokeColor=#b85450;" parent="1" vertex="1">
          <mxGeometry x="90" y="400" width="120" height="80" as="geometry" />
        </mxCell>
        <mxCell id="8MOW-syFpqiqDsgKMTjz-5" value="" style="edgeStyle=orthogonalEdgeStyle;rounded=0;orthogonalLoop=1;jettySize=auto;html=1;" parent="1" source="8MOW-syFpqiqDsgKMTjz-2" target="8MOW-syFpqiqDsgKMTjz-4" edge="1">
          <mxGeometry relative="1" as="geometry" />
        </mxCell>
        <mxCell id="8MOW-syFpqiqDsgKMTjz-7" value="儿子和女儿" style="edgeLabel;html=1;align=center;verticalAlign=middle;resizable=0;points=[];" parent="8MOW-syFpqiqDsgKMTjz-5" vertex="1" connectable="0">
          <mxGeometry x="-0.05" y="4" relative="1" as="geometry">
            <mxPoint as="offset" />
          </mxGeometry>
        </mxCell>
        <mxCell id="8MOW-syFpqiqDsgKMTjz-2" value="向阳" style="ellipse;whiteSpace=wrap;html=1;fillColor=#f8cecc;strokeColor=#b85450;" parent="1" vertex="1">
          <mxGeometry x="340" y="400" width="120" height="80" as="geometry" />
        </mxCell>
        <mxCell id="8MOW-syFpqiqDsgKMTjz-4" value="思雨和她&lt;br&gt;弟" style="ellipse;whiteSpace=wrap;html=1;fillColor=#d5e8d4;strokeColor=#82b366;" parent="1" vertex="1">
          <mxGeometry x="340" y="570" width="120" height="80" as="geometry" />
        </mxCell>
        <mxCell id="8MOW-syFpqiqDsgKMTjz-10" value="" style="edgeStyle=orthogonalEdgeStyle;rounded=0;orthogonalLoop=1;jettySize=auto;html=1;" parent="1" source="8MOW-syFpqiqDsgKMTjz-8" target="8MOW-syFpqiqDsgKMTjz-9" edge="1">
          <mxGeometry relative="1" as="geometry" />
        </mxCell>
        <mxCell id="8MOW-syFpqiqDsgKMTjz-13" value="表哥" style="edgeLabel;html=1;align=center;verticalAlign=middle;resizable=0;points=[];" parent="8MOW-syFpqiqDsgKMTjz-10" vertex="1" connectable="0">
          <mxGeometry x="0.0462" y="-3" relative="1" as="geometry">
            <mxPoint as="offset" />
          </mxGeometry>
        </mxCell>
        <mxCell id="8MOW-syFpqiqDsgKMTjz-17" style="edgeStyle=orthogonalEdgeStyle;rounded=0;orthogonalLoop=1;jettySize=auto;html=1;entryX=-0.008;entryY=0.638;entryDx=0;entryDy=0;entryPerimeter=0;" parent="1" source="8MOW-syFpqiqDsgKMTjz-8" target="8MOW-syFpqiqDsgKMTjz-14" edge="1">
          <mxGeometry relative="1" as="geometry" />
        </mxCell>
        <mxCell id="8MOW-syFpqiqDsgKMTjz-18" value="姑姑" style="edgeLabel;html=1;align=center;verticalAlign=middle;resizable=0;points=[];" parent="8MOW-syFpqiqDsgKMTjz-17" vertex="1" connectable="0">
          <mxGeometry x="0.0502" relative="1" as="geometry">
            <mxPoint as="offset" />
          </mxGeometry>
        </mxCell>
        <mxCell id="8MOW-syFpqiqDsgKMTjz-8" value="我妈" style="ellipse;whiteSpace=wrap;html=1;fillColor=#fff2cc;strokeColor=#d6b656;" parent="1" vertex="1">
          <mxGeometry x="80" y="260" width="120" height="80" as="geometry" />
        </mxCell>
        <mxCell id="8MOW-syFpqiqDsgKMTjz-11" value="" style="edgeStyle=orthogonalEdgeStyle;rounded=0;orthogonalLoop=1;jettySize=auto;html=1;" parent="1" source="8MOW-syFpqiqDsgKMTjz-9" target="8MOW-syFpqiqDsgKMTjz-2" edge="1">
          <mxGeometry relative="1" as="geometry" />
        </mxCell>
        <mxCell id="8MOW-syFpqiqDsgKMTjz-15" value="" style="edgeStyle=orthogonalEdgeStyle;rounded=0;orthogonalLoop=1;jettySize=auto;html=1;" parent="1" source="8MOW-syFpqiqDsgKMTjz-9" target="8MOW-syFpqiqDsgKMTjz-14" edge="1">
          <mxGeometry relative="1" as="geometry" />
        </mxCell>
        <mxCell id="8MOW-syFpqiqDsgKMTjz-20" value="" style="edgeStyle=orthogonalEdgeStyle;rounded=0;orthogonalLoop=1;jettySize=auto;html=1;" parent="1" source="8MOW-syFpqiqDsgKMTjz-9" target="8MOW-syFpqiqDsgKMTjz-19" edge="1">
          <mxGeometry relative="1" as="geometry" />
        </mxCell>
        <mxCell id="8MOW-syFpqiqDsgKMTjz-9" value="向阳父亲" style="ellipse;whiteSpace=wrap;html=1;fillColor=#fff2cc;strokeColor=#d6b656;" parent="1" vertex="1">
          <mxGeometry x="340" y="260" width="120" height="80" as="geometry" />
        </mxCell>
        <mxCell id="8MOW-syFpqiqDsgKMTjz-14" value="向阳奶奶" style="ellipse;whiteSpace=wrap;html=1;fillColor=#dae8fc;strokeColor=#6c8ebf;" parent="1" vertex="1">
          <mxGeometry x="340" y="100" width="120" height="80" as="geometry" />
        </mxCell>
        <mxCell id="8MOW-syFpqiqDsgKMTjz-21" style="edgeStyle=orthogonalEdgeStyle;rounded=0;orthogonalLoop=1;jettySize=auto;html=1;entryX=1;entryY=0.7;entryDx=0;entryDy=0;entryPerimeter=0;" parent="1" source="8MOW-syFpqiqDsgKMTjz-19" target="8MOW-syFpqiqDsgKMTjz-14" edge="1">
          <mxGeometry relative="1" as="geometry" />
        </mxCell>
        <mxCell id="8MOW-syFpqiqDsgKMTjz-22" value="姑姑" style="edgeLabel;html=1;align=center;verticalAlign=middle;resizable=0;points=[];" parent="8MOW-syFpqiqDsgKMTjz-21" vertex="1" connectable="0">
          <mxGeometry x="-0.0536" y="-2" relative="1" as="geometry">
            <mxPoint as="offset" />
          </mxGeometry>
        </mxCell>
        <mxCell id="8MOW-syFpqiqDsgKMTjz-24" value="" style="edgeStyle=orthogonalEdgeStyle;rounded=0;orthogonalLoop=1;jettySize=auto;html=1;" parent="1" source="8MOW-syFpqiqDsgKMTjz-19" target="8MOW-syFpqiqDsgKMTjz-23" edge="1">
          <mxGeometry relative="1" as="geometry">
            <Array as="points">
              <mxPoint x="600" y="370" />
              <mxPoint x="600" y="370" />
            </Array>
          </mxGeometry>
        </mxCell>
        <mxCell id="8MOW-syFpqiqDsgKMTjz-30" style="edgeStyle=orthogonalEdgeStyle;rounded=0;orthogonalLoop=1;jettySize=auto;html=1;exitX=0.5;exitY=1;exitDx=0;exitDy=0;" parent="1" source="8MOW-syFpqiqDsgKMTjz-19" target="8MOW-syFpqiqDsgKMTjz-27" edge="1">
          <mxGeometry relative="1" as="geometry" />
        </mxCell>
        <mxCell id="8MOW-syFpqiqDsgKMTjz-19" value="我大姨" style="ellipse;whiteSpace=wrap;html=1;fillColor=#fff2cc;strokeColor=#d6b656;" parent="1" vertex="1">
          <mxGeometry x="540" y="260" width="120" height="80" as="geometry" />
        </mxCell>
        <mxCell id="8MOW-syFpqiqDsgKMTjz-26" value="" style="edgeStyle=orthogonalEdgeStyle;rounded=0;orthogonalLoop=1;jettySize=auto;html=1;" parent="1" source="8MOW-syFpqiqDsgKMTjz-23" target="8MOW-syFpqiqDsgKMTjz-25" edge="1">
          <mxGeometry relative="1" as="geometry" />
        </mxCell>
        <mxCell id="KJTPJqZerFx04vZCgejh-1" value="女儿" style="edgeLabel;html=1;align=center;verticalAlign=middle;resizable=0;points=[];" vertex="1" connectable="0" parent="8MOW-syFpqiqDsgKMTjz-26">
          <mxGeometry y="-3" relative="1" as="geometry">
            <mxPoint as="offset" />
          </mxGeometry>
        </mxCell>
        <mxCell id="8MOW-syFpqiqDsgKMTjz-23" value="我表姐" style="ellipse;whiteSpace=wrap;html=1;fillColor=#f8cecc;strokeColor=#b85450;" parent="1" vertex="1">
          <mxGeometry x="540" y="400" width="120" height="80" as="geometry" />
        </mxCell>
        <mxCell id="8MOW-syFpqiqDsgKMTjz-25" value="乐妮" style="ellipse;whiteSpace=wrap;html=1;fillColor=#d5e8d4;strokeColor=#82b366;" parent="1" vertex="1">
          <mxGeometry x="540" y="570" width="120" height="80" as="geometry" />
        </mxCell>
        <mxCell id="8MOW-syFpqiqDsgKMTjz-32" value="女儿&lt;br&gt;" style="edgeStyle=orthogonalEdgeStyle;rounded=0;orthogonalLoop=1;jettySize=auto;html=1;" parent="1" source="8MOW-syFpqiqDsgKMTjz-27" target="8MOW-syFpqiqDsgKMTjz-31" edge="1">
          <mxGeometry relative="1" as="geometry" />
        </mxCell>
        <mxCell id="8MOW-syFpqiqDsgKMTjz-27" value="我表哥" style="ellipse;whiteSpace=wrap;html=1;fillColor=#f8cecc;strokeColor=#b85450;" parent="1" vertex="1">
          <mxGeometry x="707" y="400" width="120" height="80" as="geometry" />
        </mxCell>
        <mxCell id="8MOW-syFpqiqDsgKMTjz-31" value="静雯" style="ellipse;whiteSpace=wrap;html=1;fillColor=#d5e8d4;strokeColor=#82b366;" parent="1" vertex="1">
          <mxGeometry x="707" y="570" width="120" height="80" as="geometry" />
        </mxCell>
      </root>
    </mxGraphModel>
  </diagram>
</mxfile>
